<?xml version="1.0" encoding="utf-8"?>
<!DOCTYPE svg PUBLIC "-//W3C//DTD SVG 1.1//EN" "http://www.w3.org/Graphics/SVG/1.1/DTD/svg11.dtd">
<svg version="1.1" id="Layer_1" xmlns="http://www.w3.org/2000/svg" xmlns:xlink="http://www.w3.org/1999/xlink" x="0px" y="0px"
	 width="100px" height="111px" viewBox="0 0 100 111" style="enable-background:new 0 0 100 111;" xml:space="preserve">
<style type="text/css">
	.st0{fill-rule:evenodd;clip-rule:evenodd;}
</style>
<path class="st0" d="M100,37v65.7c0,4.5-3.7,8.2-8.3,8.2H16.9c-4.6,0-8.3-3.7-8.3-8.2V92H4.1C1.9,92,0,90.1,0,87.9V64.5
	c0-2.3,1.9-4.1,4.2-4.1h4.4V8.3c0-4.5,3.7-8.2,8.3-8.2h45.7h8.1c1.2-0.1,2.5,0.3,3.4,1.2l24.6,24.3c0.9,0.9,1.3,2.1,1.2,3.3h0.1V37
	l-33.3,0c-2.3,0-4.2-1.8-4.2-4.1V8.3H16.9v52.1h42.9c2.3,0,4.2,1.8,4.2,4.1v23.4c0,2.3-1.9,4.1-4.2,4.1H16.9v10.8h74.8V37H100z
	 M70.9,28.8h18.8L70.9,10.2V28.8z M48.9,84c3.6,0,6.5-2.2,6.8-6.5h-4.4C51,79.1,50.2,80,48.9,80c-1.8,0-2.8-1.6-2.8-4.2
	c0-1.9,0.7-4.2,2.8-4.2c1.3,0,2.1,0.8,2.4,2.2h4.4c-0.2-3.5-3.1-6.2-6.7-6.2c-4.5,0-7.5,3.6-7.5,8.2C41.5,80.4,44.4,84,48.9,84z
	 M31.9,84c4.4,0,7.4-3.3,7.4-8.2c0-4.9-3-8.2-7.3-8.2c-4.6,0-7.6,3.2-7.6,8.2C24.4,80.8,27.4,84,31.9,84z M22.3,75.8
	c0-4.9-2.9-7.8-7.4-7.8H8.3v15.6h6.5C19.6,83.7,22.3,81,22.3,75.8z M12.8,79.7V72h1.3c2.3,0,3.7,1.3,3.7,3.9c0,2.3-1.1,3.8-3.3,3.8
	H12.8z M31.9,71.5c1.8,0,2.8,1.6,2.8,4.2c0,3-1,4.5-2.8,4.5c-1.9,0-2.9-1.6-2.9-4.4C29,73.1,30,71.5,31.9,71.5z"/>
</svg>
