<?xml version="1.0" encoding="utf-8"?>
<!-- Generator: Adobe Illustrator 19.2.1, SVG Export Plug-In . SVG Version: 6.00 Build 0)  -->
<!DOCTYPE svg PUBLIC "-//W3C//DTD SVG 1.1//EN" "http://www.w3.org/Graphics/SVG/1.1/DTD/svg11.dtd">
<svg version="1.1" id="Layer_1" xmlns="http://www.w3.org/2000/svg" xmlns:xlink="http://www.w3.org/1999/xlink" x="0px" y="0px"
	 width="100px" height="111px" viewBox="0 0 100 111" style="enable-background:new 0 0 100 111;" xml:space="preserve">
<style type="text/css">
	.st0{fill-rule:evenodd;clip-rule:evenodd;}
</style>
<path class="st0" d="M100,37v65.7c0,4.5-3.7,8.2-8.3,8.2H16.9c-4.6,0-8.3-3.7-8.3-8.2V91.9H4.2c-2.3,0-4.2-1.8-4.2-4.1V64.4
	c0-2.3,1.9-4.1,4.2-4.1h4.4V8.2c0-4.5,3.7-8.2,8.3-8.2h45.7h8.1c1.2-0.1,2.5,0.3,3.4,1.2l24.6,24.3c0.9,0.9,1.3,2.1,1.2,3.3h0.1V37
	l-33.3,0c-2.3,0-4.2-1.8-4.2-4.1V8.2H16.9v52.1h42.9c2.3,0,4.2,1.8,4.2,4.1v23.4c0,2.3-1.9,4.1-4.2,4.1H16.9v10.8h74.8V37H100z
	 M70.9,28.8h18.8L70.9,10.2V28.8z M47.3,84.1c1.8,0,3.2-0.5,4.3-2l0.1,1.6h2.9v-8.6h-6.2v3.4h2c-0.3,1.2-1.2,1.8-2.6,1.8
	c-2.1,0-3.2-1.4-3.2-4.2c0-2,0.5-4.4,2.9-4.4c1.2,0,2,0.6,2.3,1.8h4.4c-0.4-3.5-3.3-5.9-6.7-5.9c-4.5,0-7.7,3.4-7.7,8.2
	C40.1,80.8,43,84.1,47.3,84.1z M23.9,83.7h4.4l0-5.4c0-1.2,0-2.4-0.1-3.6c0.4,0.8,0.7,1.6,1.1,2.4l3.7,6.7h4.4V68H33l0,5.2
	c0,1.2,0,2.4,0.1,3.6c-0.4-1-1-2-1.5-3L28.5,68h-4.6V83.7z M21.6,73.6c0-4.6-3.3-5.6-6.6-5.6H8.5v15.7h4.6v-4.8H16
	C19.2,78.9,21.6,77.2,21.6,73.6z M13.1,75.2v-3.3h2.1c1.4,0,2,0.5,2,1.7c0,1.3-0.8,1.7-1.9,1.7H13.1z"/>
</svg>
