<?xml version="1.0" encoding="utf-8"?>
<!-- Generator: Adobe Illustrator 19.2.1, SVG Export Plug-In . SVG Version: 6.00 Build 0)  -->
<!DOCTYPE svg PUBLIC "-//W3C//DTD SVG 1.1//EN" "http://www.w3.org/Graphics/SVG/1.1/DTD/svg11.dtd">
<svg version="1.1" id="Layer_1" xmlns="http://www.w3.org/2000/svg" xmlns:xlink="http://www.w3.org/1999/xlink" x="0px" y="0px"
	 width="100px" height="111px" viewBox="0 0 100 111" style="enable-background:new 0 0 100 111;" xml:space="preserve">
<style type="text/css">
	.st0{fill-rule:evenodd;clip-rule:evenodd;}
</style>
<path class="st0" d="M100,37v65.7c0,4.5-3.7,8.2-8.3,8.2H16.8c-4.6,0-8.3-3.7-8.3-8.2V92H4.1C1.9,92,0,90.1,0,87.9V64.5
	c0-2.3,1.9-4.1,4.2-4.1h4.4V8.3c0-4.5,3.7-8.2,8.3-8.2h45.7h8.1c1.2-0.1,2.5,0.3,3.4,1.2l24.6,24.3c0.9,0.9,1.3,2.1,1.2,3.3h0.1V37
	l-33.3,0c-2.3,0-4.2-1.8-4.2-4.1V8.3H16.8v52.1h42.9c2.3,0,4.2,1.8,4.2,4.1v23.4c0,2.3-1.9,4.1-4.2,4.1H16.8v10.8h74.8V37H100z
	 M70.9,28.8h18.8L70.9,10.2V28.8z M47.6,84c4.2,0,6.8-2.1,6.8-5.3c0-3.3-2.8-4.3-5.4-5c-0.7-0.2-3.3-0.6-3.3-1.5c0-0.6,0.6-1,1.6-1
	c1.2,0,2,0.6,2,1.5h4.5c0-3.2-2.3-5.1-6.3-5.1c-3.8,0-6.3,2-6.3,4.9c0,2.7,1.6,3.6,3.8,4.3c1.1,0.4,3.8,1,4.4,1.6
	c0.2,0.2,0.3,0.4,0.3,0.6c0,0.8-0.7,1.3-1.9,1.3c-1.4,0-2.3-0.5-2.4-2h-4.8C40.6,81.9,43.2,84,47.6,84z M27,83.7h11.7v-4.1h-6.9V68
	H27V83.7z M16.9,81.1l1.5,2.6h5.8l-5.6-8.3l5-7.4h-5.3L17,70.3c-0.4,0.7-0.7,1.4-1,2.1c-0.3-0.8-0.7-1.6-1.2-2.3L13.6,68H8l5.1,7.4
	l-5.7,8.3H13l1.5-2.5c0.5-0.7,0.9-1.5,1.2-2.3C16.1,79.7,16.5,80.4,16.9,81.1z"/>
</svg>
