<?xml version="1.0" encoding="utf-8"?>
<!-- Generator: Adobe Illustrator 19.2.1, SVG Export Plug-In . SVG Version: 6.00 Build 0)  -->
<!DOCTYPE svg PUBLIC "-//W3C//DTD SVG 1.1//EN" "http://www.w3.org/Graphics/SVG/1.1/DTD/svg11.dtd">
<svg version="1.1" id="Layer_1" xmlns="http://www.w3.org/2000/svg" xmlns:xlink="http://www.w3.org/1999/xlink" x="0px" y="0px"
	 width="100px" height="111px" viewBox="0 0 100 111" style="enable-background:new 0 0 100 111;" xml:space="preserve">
<style type="text/css">
	.st0{fill-rule:evenodd;clip-rule:evenodd;}
</style>
<path class="st0" d="M100,37v65.7c0,4.5-3.7,8.2-8.3,8.2H16.9c-4.6,0-8.3-3.7-8.3-8.2V91.9H4.2c-2.3,0-4.2-1.8-4.2-4.1V64.4
	c0-2.3,1.9-4.1,4.2-4.1h4.4V8.2c0-4.5,3.7-8.2,8.3-8.2h45.7h8.1c1.2-0.1,2.5,0.3,3.4,1.2l24.6,24.3c0.9,0.9,1.3,2.1,1.2,3.3h0.1V37
	l-33.3,0c-2.3,0-4.2-1.8-4.2-4.1V8.2H16.9v52.1h35.9c2.3,0,4.2,1.8,4.2,4.1v23.4c0,2.3-1.9,4.1-4.2,4.1H16.9v10.8h74.8V37H100z
	 M70.9,28.8h18.8L70.9,10.2V28.8z M35,83.7h4.7v-5h2.9c3.3,0,5.8-1.7,5.8-5.4c0-4.7-3.3-5.7-6.7-5.7H35V83.7z M26,83.7h4.7V67.5H26
	V83.7z M22.4,83.7v-4.2h-4.4c-0.9,0-1.6,0-3.3,0.1c1.2-1.3,1.7-1.8,2.4-2.6l5-5.7v-3.6h-13v4.2l4,0c1.6,0,1.1,0,2.8-0.1
	c-1,1-1.4,1.4-1.9,2l-5.3,6.1v3.9H22.4z M43.8,73.2c0,1.3-0.8,1.7-1.9,1.7h-2.3v-3.4h2.2C43.2,71.5,43.8,72.1,43.8,73.2z"/>
</svg>
