<?xml version="1.0" encoding="utf-8"?>
<!-- Generator: Adobe Illustrator 19.2.1, SVG Export Plug-In . SVG Version: 6.00 Build 0)  -->
<!DOCTYPE svg PUBLIC "-//W3C//DTD SVG 1.1//EN" "http://www.w3.org/Graphics/SVG/1.1/DTD/svg11.dtd">
<svg version="1.1" id="Layer_1" xmlns="http://www.w3.org/2000/svg" xmlns:xlink="http://www.w3.org/1999/xlink" x="0px" y="0px"
	 width="100px" height="111px" viewBox="0 0 100 111" style="enable-background:new 0 0 100 111;" xml:space="preserve">
<style type="text/css">
	.st0{fill-rule:evenodd;clip-rule:evenodd;}
</style>
<path class="st0" d="M100,37v65.7c0,4.5-3.7,8.2-8.3,8.2H16.9c-4.6,0-8.3-3.7-8.3-8.2V91.9H4.2c-2.3,0-4.2-1.8-4.2-4.1V64.4
	c0-2.3,1.9-4.1,4.2-4.1h4.4V8.2c0-4.5,3.7-8.2,8.3-8.2h45.7h8.1c1.2-0.1,2.5,0.3,3.4,1.2l24.6,24.3c0.9,0.9,1.3,2.1,1.2,3.3h0.1V37
	l-33.3,0c-2.3,0-4.2-1.8-4.2-4.1V8.2H16.9v52.1h41.9c2.3,0,4.2,1.8,4.2,4.1v23.4c0,2.3-1.9,4.1-4.2,4.1H16.9v10.8h74.8V37H100z
	 M70.9,28.8h18.8L70.9,10.2V28.8z M42.3,83.6h4.4v-5.8h5.8V74h-5.8v-2.5h6.7v-4.1H42.3V83.6z M25,83.6h6.4c4.7,0,7.4-2.7,7.4-8.1
	c0-5-2.9-8-7.3-8H25V83.6z M21.8,73.2c0-4.7-3.1-5.7-6.3-5.7H9.2v16.1h4.4v-5h2.8C19.4,78.6,21.8,76.9,21.8,73.2z M13.6,74.8v-3.4h2
	c1.3,0,1.9,0.6,1.9,1.7c0,1.3-0.7,1.7-1.8,1.7H13.6z M34.3,75.5c0,2.4-1.1,3.9-3.2,3.9h-1.7v-8h1.3C32.9,71.5,34.3,72.8,34.3,75.5z"
	/>
</svg>
