<?xml version="1.0" encoding="utf-8"?>
<!-- Generator: Adobe Illustrator 19.2.1, SVG Export Plug-In . SVG Version: 6.00 Build 0)  -->
<!DOCTYPE svg PUBLIC "-//W3C//DTD SVG 1.1//EN" "http://www.w3.org/Graphics/SVG/1.1/DTD/svg11.dtd">
<svg version="1.1" id="Layer_1" xmlns="http://www.w3.org/2000/svg" xmlns:xlink="http://www.w3.org/1999/xlink" x="0px" y="0px"
	 width="91.4px" height="111px" viewBox="0 0 91.4 111" style="enable-background:new 0 0 91.4 111;" xml:space="preserve">
<path d="M91.4,37v65.7c0,4.5-3.7,8.2-8.3,8.2H8.3c-4.6,0-8.3-3.7-8.3-8.2L0,8.2C0,3.7,3.7,0,8.3,0H54h8.1c1.2-0.1,2.5,0.3,3.4,1.2
	l24.6,24.3c0.9,0.9,1.3,2.1,1.2,3.3h0.1V37H58.1c-2.3,0-4.2-1.8-4.2-4.1V8.2H8.3v94.5h74.8V37H91.4z M62.3,28.8h18.8L62.3,10.2V28.8
	z"/>
</svg>
